# xmcd CD database file
#
# Track frame offsets:
#	222
#	13425
#	26100
#	36530
#	48267
#	59827
#	72307
#	85805
#	100877
#	112885
#	126390
#	137420
#	149080
#	162312
#	176527
#	190740
#	203585
#
# Disc length: 2881 seconds
#
# Revision: 2
# Processed by: cddbd v1.5PL3 Copyright (c) Steve Scherf et al.
# Submitted via: CDex 1.51
#
DISCID=000b3f11
DTITLE=Jimmie Rodgers - Riding High 1929-1930 - Rounder CD
DYEAR=1991
DGENRE=Country
TTITLE0=Anniversary Blue Yodel (Blue Yodel No. 7)
TTITLE1=Anniversary Blue Yodel {Blue Yodel No. 7}(Unissued - Take 7)
TTITLE2=That's Why I'm Blue
TTITLE3=Mississippi River Blues
TTITLE4=Mississippi River Blues
TTITLE5=She Was Happy Till She Met You
TTITLE6=Blue Yodel Number Eleven
TTITLE7=A Drunkard's Child
TTITLE8=Nobody Knows But Me
TTITLE9=Moonlight And Skies
TTITLE10=Why Did You Give Me Your Love (Unissued -Take 1)
TTITLE11=Why Did You Give Me Your Love
TTITLE12=Pistol Packin' Papa
TTITLE13=Why Should I Be Lonely
TTITLE14=Take Me Back Again
TTITLE15=Those Gambler's Blues
TTITLE16=My Blue-Eyed Jane
EXTD=YEAR: 1991
EXTT0=
EXTT1=
EXTT2=
EXTT3=
EXTT4=
EXTT5=
EXTT6=
EXTT7=
EXTT8=
EXTT9=
EXTT10=
EXTT11=
EXTT12=
EXTT13=
EXTT14=
EXTT15=
EXTT16=
PLAYORDER=
